The Sorcerer's Apprentice (2010)1080p AC3+DTS Eng-NLSubs-DMT

Verenigde Staten
Avontuur / Fantasy
111 minuten

geregisseerd door Jon Turteltaub
met Nicolas Cage, Jay Baruchel en Alfred Molina

Balthazar Blake (Nicolas Cage) is een tovenaarsmeester in het hedendaagse Manhattan die probeert 
zijn stad te beschermen tegen zijn aartsvijand, Maxim Horvath. Balthazar kan dit echter niet alleen, 
daarom benadert hij de jonge Dave Stutler (Jay Baruchel). 
Dave is een doorsnee jongen maar heeft een verborgen potentieel om een tovenaar te kunnen worden. 
Balthazar neemt de jongen onder zijn hoede en geeft zijn onzekere leerling een stoomcursus magie. 
Het vergt het uiterste van Dave zijn moed om Balthazar's training te overleven, 
de stad te redden en het meisje van zijn dromen voor zich te winnen.

Vanaf 14 december op video
-------------------------------------------------------------------------------------------------------
PLOT

Master sorcerer Balthazar Blake recruits a seemingly everyday guy in 
his mission to defend New York City from his arch-nemesis, Maxim Horvath. 
-------------------------------------------------------------------------------------------------------
    http://www.youtube.com/watch?v=9VZllR44gdA

MM:    http://www.moviemeter.nl/film/61476

IMDB:    http://www.imdb.com/title/tt0963966/
-------------------------------------------------------------------------------------------------------
INFO

General
Complete name                    : The.Sorcerers.Apprentice.1080p.AC3.DTS.Eng.NLSubs-DMT.mkv
Format                           : Matroska
File size                        : 8.43 GiB
Duration                         : 1h 49mn
Overall bit rate                 : 11.1 Mbps
Encoded date                     : UTC 2010-11-12 11:19:17
Writing application              : mkvmerge v3.1.0 ('Happy up here') built on Jan 19 2010 12:09:24
Writing library                  : libebml v0.7.9 + libmatroska v0.8.1

Video
ID                               : 1
Format                           : AVC
Format/Info                      : Advanced Video Codec
Format profile                   : High@L4.0
Format settings, CABAC           : Yes
Format settings, ReFrames        : 5 frames
Format settings, GOP             : M=4, N=16
Muxing mode                      : Container profile=Unknown@4.0
Codec ID                         : V_MPEG4/ISO/AVC
Duration                         : 1h 49mn
Bit rate                         : 8 915 Kbps
Width                            : 1 920 pixels
Height                           : 800 pixels
Display aspect ratio             : 2.40:1
Frame rate                       : 23.976 fps
Color space                      : YUV
Chroma subsampling               : 4:2:0
Bit depth                        : 8 bits
Scan type                        : Progressive
Bits/(Pixel*Frame)               : 0.242
Stream size                      : 6.62 GiB (79%)
Writing library                  : x264 core 107 r1745 4785e8e
Encoding settings                : cabac=1 / ref=5 / deblock=1:0:0 / analyse=0x3:0x113 / 
me=umh / subme=7 / psy=1 / psy_rd=1.00:0.20 / mixed_ref=1 / me_range=16 / chroma_me=1 / 
trellis=1 / 8x8dct=1 / cqm=0 / deadzone=21,11 / fast_pskip=1 / chroma_qp_offset=-3 / 
threads=12 / sliced_threads=0 / nr=0 / decimate=1 / interlaced=0 / constrained_intra=0 / 
bframes=3 / b_pyramid=2 / b_adapt=1 / b_bias=0 / direct=3 / weightb=1 / open_gop=0 / 
weightp=2 / keyint=250 / keyint_min=23 / scenecut=40 / intra_refresh=0 / rc_lookahead=40 / 
rc=2pass / mbtree=1 / bitrate=8915 / ratetol=1.0 / qcomp=0.60 / qpmin=10 / qpmax=51 / 
qpstep=4 / cplxblur=20.0 / qblur=0.5 / ip_ratio=1.40 / aq=1:1.00
Language                         : English

Audio #1
ID                               : 2
Format                           : AC-3
Format/Info                      : Audio Coding 3
Mode extension                   : CM (complete main)
Codec ID                         : A_AC3
Duration                         : 1h 49mn
Bit rate mode                    : Constant
Bit rate                         : 640 Kbps
Channel(s)                       : 6 channels
Channel positions                : Front: L C R, Side: L R, LFE
Sampling rate                    : 48.0 KHz
Bit depth                        : 16 bits
Stream size                      : 499 MiB (6%)
Language                         : English

Audio #2
ID                               : 3
Format                           : DTS
Format/Info                      : Digital Theater Systems
Codec ID                         : A_DTS
Duration                         : 1h 49mn
Bit rate mode                    : Constant
Bit rate                         : 1 510 Kbps
Channel(s)                       : 6 channels
Channel positions                : Front: L C R, Side: L R, LFE
Sampling rate                    : 48.0 KHz
Bit depth                        : 24 bits
Stream size                      : 1.15 GiB (14%)
Language                         : English

Text #1
ID                               : 4
Format                           : UTF-8
Codec ID                         : S_TEXT/UTF8
Codec ID/Info                    : UTF-8 Plain Text
Language                         : Dutch

Text #2
ID                               : 5
Format                           : UTF-8
Codec ID                         : S_TEXT/UTF8
Codec ID/Info                    : UTF-8 Plain Text
Language                         : English

Menu
00:00:00.000                     : en:00:00:00.000
00:04:11.168                     : en:00:04:11.168
00:14:54.519                     : en:00:14:54.519
00:20:58.716                     : en:00:20:58.716
00:25:27.985                     : en:00:25:27.985
00:31:09.326                     : en:00:31:09.326
00:37:08.893                     : en:00:37:08.893
00:42:25.793                     : en:00:42:25.793
00:49:11.240                     : en:00:49:11.240
00:53:41.301                     : en:00:53:41.301
00:57:56.139                     : en:00:57:56.139
01:01:53.168                     : en:01:01:53.168
01:07:04.270                     : en:01:07:04.270
01:12:41.315                     : en:01:12:41.315
01:17:24.849                     : en:01:17:24.849
01:21:33.972                     : en:01:21:33.972
01:25:44.806                     : en:01:25:44.806
01:28:31.264                     : en:01:28:31.264
01:34:04.722                     : en:01:34:04.722
01:39:01.686                     : en:01:39:01.686
01:42:38.819                     : en:01:42:38.819



Thanks To Woudje_nl

Enjoy





